<?xml version="1.0" encoding="UTF-8"?>
<svg version="1.1" viewBox="0 0 1024 1024" width="1024" height="1024" xmlns="http://www.w3.org/2000/svg">
<path transform="translate(499,204)" d="m0 0h3v194l-5-1-38-14-29-11-43-16-31-12-3-9-5-21v-4l88-22 4 1v33l10 3 8 3-1-63-66 16-64 16 3 15 10 44v2l6 1 20 8 83 31 48 18 5 2v226l-5-2-52-29-24-14-27-15-24-14-25-14-5-4-6-23-7-27 7 2 19 10 104 52 1-113-9-3-144-55-3-2-18-82-10-46v-4l13-4 137-34z" fill="#FBF2DA"/>
<path transform="translate(819,232)" d="m0 0h2l-1 9-21 89-10 42-3 14 1 5 10 18 7 16 5 17 2 11v30l-3 16-4 12-10 21-10 14-12 13-10 9-19 14-33 22-25 16-10 7-47 30-37 24-17 11-22 14-20 13-10 6-2-1v-57l9-6 23-13 24-14 24-13 10-6 25-14 46-26 14-8 27-15 22-12 12-9 7-7 9-14 5-14 2-8v-24l-4-15-7-12-9-10-10-7-17-9 4-17 31-124 2-7 21-13 20-12z" fill="#FBF2DA"/>
<path transform="translate(520,204)" d="m0 0 10 1 169 43 43 11-4 4-18 11-24 15-7 5-9-1-114-29-1 6v102l10 3 46 16 53 19 37 13 1 2-11 46-5-1-144-53-25-9-7-3z" fill="#FBF2DA"/>
<path transform="translate(237,389)" d="m0 0 7 1 28 11 15 6 3 8 24 104 5 20v2l-5-2-42-21-15-7 3 9 4 10v2l5 2 23 12 10 6 10 5 23 13 29 17 23 13 49 28 18 10 17 10 22 12 9 6v59l-9-5-24-15-22-14-12-8-22-14-12-8-17-11-27-18-16-10-60-40-12-9-13-11-12-12-10-13-9-15-7-16-4-14-2-15v-20l2-14 6-21 8-18z" fill="#FBF2DA"/>
<path transform="translate(520,425)" d="m0 0 10 3 96 35 49 18 7 3-3 3-27 14-19 10-50 26h-1v-28l1-12-10-3-9-3v76l20-10 19-10 23-12 29-15 36-19 4-1-4 20-8 33-26 15-25 14-46 26-63 36-3-1z" fill="#FBF2DA"/>
<path transform="translate(203,320)" d="m0 0 2 4 14 56-1 7-11 21-8 24-3 13-1 9v25l3 18 6 19 8 18 8 13 9 12 9 10 9 9 2 1v2l4 2 17 13 33 22 29 19 27 18 16 10 19 12v1l-15-1-31-6-29-8-28-11-21-10-23-14-12-9-10-8-11-11-7-6-9-11-10-14-9-15-8-16-7-19-5-19-3-16-1-10v-32l3-23 6-24 8-22 10-21 12-20z" fill="#FBF2DA"/>
<path transform="translate(818,320)" d="m0 0 4 4 11 17 11 19 10 22 7 21 5 21 3 25v20l-2 19-4 19-6 20-7 17-10 19-11 16-11 13-16 16-14 11-16 12-21 12-23 11-27 10-26 7-26 5-18 2 5-5 48-31 23-15 19-12 22-15 14-10 16-13 5-5h2v-2h2v-2h2l2-4 8-9 10-15 9-17 6-18 3-15 1-8v-28l-2-14-6-21-6-15-10-19 5-25 8-39z" fill="#FBF2DA"/>
<path transform="translate(520,136)" d="m0 0 9 1 155 39 79 20 57 14-3 3-20 12-13 8-19 12-4 1-112-29-32-8-71-18-25-6-1-1z" fill="#FBF2DA"/>
<path transform="translate(499,136)" d="m0 0h3v48l-8 3-150 38-60 15-19 5-5-1-22-12-34-20 1-2 123-31 131-33z" fill="#FBF2DA"/>
<path transform="translate(309,416)" d="m0 0 10 3 20 8 42 16 47 18 12 5v70l-5-1-112-56-3-7-11-51z" fill="#FBF2DA"/>
<path transform="translate(745,279)" d="m0 0h1l-1 9-17 69-12 48-7-1-30-11-34-12-28-10-12-5 4-4 22-13 19-12 26-16 28-17 15-9 23-14z" fill="#FBF2DA"/>
<path transform="translate(201,232)" d="m0 0 14 7 21 12 19 11 15 66 13 55v3l-9-3-31-12-10-4-8-34-17-72-7-26z" fill="#FBF2DA"/>
<path transform="translate(498,779)" d="m0 0h22l6 12 11 26 15 36 9 21v4h-24l-5-12-3-7h-39l-7 18-1 1h-23l1-5 11-28 26-65z" fill="#FBF2DA"/>
<path transform="translate(589,779)" d="m0 0 5 1 1 61 3 8 2 4 7 4 4 1h7l8-4 4-5 2-7v-62l9-1h15v61l-3 16-6 10-8 7-8 4-8 2h-18l-12-3-10-6-7-9-4-10-1-5v-66z" fill="#FBF2DA"/>
<path transform="translate(314,778)" d="m0 0h18l12 3 11 6 3 3-8 17h-3l-10-6-7-2h-14l-5 3-1 6 5 5 27 9 10 6 7 8 2 4 1 6v8l-3 10-7 8-13 6-6 1h-20l-15-4-10-6-4-3 2-4 7-11 4-3 10 7 10 3h15l4-2 2-4-1-5-6-4-12-4-13-4-9-5-5-4-5-10-1-11 3-11 6-8 8-5z" fill="#FBF2DA"/>
<path transform="translate(226,778)" d="m0 0h17l11 3 14 7 1 4-8 15-5-2-11-5-4-1h-14l-5 5 1 6 7 4 21 7 12 6 7 8 3 8v12l-4 10-5 6-11 6-10 2h-17l-13-3-12-6-5-4 1-5 7-10 2-3 5 2 8 5 9 3h15l5-3 2-3-1-6-10-5-18-5-12-6-7-7-3-6-1-5v-9l4-11 5-6 9-5z" fill="#FBF2DA"/>
<path transform="translate(377,779)" d="m0 0h16l12 34 11 31v4h2l2-9 16-44 5-14 6-2h19l-2 9-19 48-13 32-5 10h-21l-5-11-16-42-8-20-9-25z" fill="#FBF2DA"/>
<path transform="translate(729,430)" d="m0 0 6 2 9 6 6 5 7 10 4 9 1 4v19l-3 11-5 10-8 10-10 8-26 14-5 2 2-13 11-52 8-35z" fill="#FBF2DA"/>
<path transform="translate(739,779)" d="m0 0h81l1 1v20h-30v78h-23v-78h-29z" fill="#FBF2DA"/>
<path transform="translate(678,779)" d="m0 0h22l1 1v77h43v21h-67v-98z" fill="#FBF2DA"/>
<path transform="translate(583,287)" d="m0 0 65 16 15 4-5 4-22 14-32 20-19 12h-2z" fill="#FBF2DA"/>
<path transform="translate(509,807)" d="m0 0 2 2 11 28v3h-24l-1-2 10-26z" fill="#131212"/>
</svg>
